<svg width="32" height="32" viewBox="0 0 32 32" fill="none" xmlns="http://www.w3.org/2000/svg">
<path d="M13.8439 1.62503C13.6739 1.65503 13.6089 1.71803 13.5309 1.78103C13.4529 1.84403 13.3599 1.91803 13.2809 2.00003C13.1249 2.16503 12.9809 2.36203 12.8119 2.56303C12.6449 2.76303 12.4769 2.97703 12.3439 3.12503C12.2769 3.19903 12.1979 3.24303 12.1559 3.28103L12.1249 3.31203C12.0689 3.31203 11.9729 3.29403 11.8749 3.28203C11.6789 3.25403 11.4439 3.20203 11.1869 3.15603C10.9309 3.11103 10.6629 3.08703 10.4369 3.06203C10.3249 3.05103 10.2249 3.02903 10.1249 3.03203C10.0036 3.0287 9.88402 3.06103 9.78093 3.12503C9.67481 3.18195 9.58785 3.26891 9.53093 3.37503C9.47993 3.46103 9.45093 3.55203 9.40593 3.65603C9.30507 3.89282 9.21136 4.1326 9.12493 4.37503C9.03493 4.62203 8.94993 4.84503 8.87493 5.03103C8.83693 5.12403 8.80793 5.19903 8.78093 5.25003C8.77293 5.26503 8.75593 5.27203 8.74993 5.28103C8.69693 5.29803 8.59693 5.32103 8.49993 5.34403C8.30593 5.38703 8.06793 5.42303 7.81193 5.46903C7.55693 5.51503 7.28193 5.57003 7.06193 5.62503C6.95193 5.65203 6.87493 5.68203 6.78193 5.71903C6.68793 5.75603 6.57793 5.77503 6.46893 5.90603C6.35893 6.03803 6.36293 6.15103 6.34393 6.25003C6.32393 6.34903 6.31993 6.44903 6.31193 6.56303C6.29693 6.79003 6.28193 7.05003 6.28193 7.31303C6.28093 7.57503 6.28893 7.83103 6.28193 8.03103C6.27693 8.13103 6.25793 8.22503 6.24993 8.28103C6.24293 8.28403 6.24093 8.29503 6.21893 8.31203C6.17393 8.34803 6.11493 8.41503 6.03093 8.46903C5.86393 8.57603 5.63093 8.71203 5.40593 8.84403C5.18093 8.97603 4.96893 9.09103 4.78093 9.21903C4.68693 9.28303 4.60693 9.33903 4.53093 9.40603C4.45593 9.47303 4.37093 9.52703 4.31293 9.68703C4.26817 9.79593 4.25703 9.91574 4.28093 10.031C4.29693 10.131 4.34393 10.234 4.37493 10.344C4.43793 10.563 4.50493 10.816 4.59393 11.063C4.68193 11.309 4.78393 11.559 4.84393 11.75C4.87393 11.845 4.89393 11.944 4.90593 12C4.90293 12.01 4.92093 12.01 4.90593 12.031C4.87593 12.079 4.81093 12.171 4.74993 12.25C4.62893 12.409 4.47893 12.58 4.31193 12.781C4.14593 12.983 3.97693 13.191 3.84393 13.375C3.77693 13.467 3.70393 13.568 3.65593 13.656C3.59185 13.7591 3.55919 13.8787 3.56193 14C3.56193 14.17 3.60793 14.224 3.65593 14.313C3.70393 14.4 3.77693 14.501 3.84393 14.593C3.97693 14.778 4.14593 14.986 4.31293 15.188C4.47893 15.389 4.62893 15.591 4.74993 15.75C4.80993 15.829 4.87593 15.89 4.90593 15.938C4.91593 15.952 4.93193 15.958 4.93793 15.968C4.93393 15.981 4.90993 15.983 4.90593 16C4.88851 16.0739 4.86782 16.147 4.84393 16.219C4.78393 16.409 4.68193 16.659 4.59393 16.906C4.50493 17.153 4.43793 17.406 4.37493 17.625C4.34393 17.735 4.29693 17.838 4.28093 17.938C4.25723 18.053 4.26838 18.1724 4.31293 18.281C4.36993 18.441 4.45593 18.496 4.53093 18.563C4.60693 18.63 4.68693 18.686 4.78093 18.75C4.96893 18.877 5.18093 19.024 5.40593 19.156C5.63093 19.288 5.86393 19.393 6.03093 19.5C6.11493 19.554 6.17393 19.621 6.21893 19.656C6.24093 19.674 6.24293 19.716 6.24993 19.719C6.25893 19.776 6.27793 19.849 6.28093 19.937C6.28893 20.138 6.28093 20.394 6.28093 20.657C6.28093 20.919 6.29693 21.179 6.31293 21.407C6.31993 21.52 6.32393 21.62 6.34293 21.719C6.36293 21.818 6.35893 21.931 6.46893 22.062C6.57893 22.194 6.68793 22.213 6.78093 22.25C6.87493 22.287 6.95293 22.316 7.06293 22.344C7.28293 22.399 7.55693 22.454 7.81293 22.5C8.06793 22.546 8.30593 22.582 8.49993 22.625C8.59693 22.646 8.69693 22.67 8.74993 22.688C8.75993 22.691 8.77293 22.684 8.78093 22.688C8.78693 22.696 8.77493 22.706 8.78093 22.718C8.80793 22.768 8.83693 22.845 8.87493 22.938C8.93693 23.091 9.02093 23.296 9.09393 23.5L6.99993 27.25C6.82093 27.589 7.18993 28.06 7.56293 27.969L9.81293 27.375L10.4059 29.625C10.5049 30.023 11.1689 30.089 11.3439 29.719L13.3749 26.031C13.4309 26.081 13.4789 26.145 13.5309 26.188C13.6089 26.251 13.6739 26.313 13.8439 26.344C14.0139 26.374 14.0919 26.344 14.1879 26.312C14.2829 26.279 14.3679 26.237 14.4679 26.187C14.6719 26.087 14.8999 25.943 15.1249 25.812C15.3499 25.682 15.5749 25.562 15.7499 25.469C15.8379 25.422 15.9169 25.397 15.9689 25.375C15.9789 25.38 16.0049 25.365 16.0309 25.375C16.0829 25.397 16.1619 25.422 16.2499 25.469C16.4259 25.562 16.6499 25.682 16.8749 25.812C17.1009 25.943 17.3279 26.087 17.5309 26.187C17.6329 26.237 17.7169 26.279 17.8129 26.312C17.9079 26.345 17.9859 26.375 18.1559 26.344C18.2602 26.3311 18.3583 26.2876 18.4379 26.219C18.4579 26.202 18.4789 26.177 18.4999 26.156L20.5309 29.719C20.7059 30.089 21.3709 30.023 21.4689 29.625L22.0619 27.375L24.3119 27.969C24.6839 28.061 25.0539 27.589 24.8749 27.25L22.8439 23.687C22.8519 23.665 22.8669 23.648 22.8749 23.625C22.9649 23.379 23.0499 23.123 23.1249 22.937C23.1629 22.844 23.1919 22.769 23.2189 22.719C23.2129 22.705 23.2389 22.698 23.2499 22.687C23.3029 22.67 23.4029 22.646 23.4999 22.625C23.6939 22.582 23.9319 22.546 24.1879 22.5C24.4429 22.454 24.7179 22.398 24.9379 22.344C25.0479 22.317 25.1249 22.287 25.2179 22.25C25.3119 22.213 25.4219 22.194 25.5309 22.062C25.6409 21.931 25.6369 21.818 25.6559 21.719C25.6759 21.619 25.6799 21.52 25.6879 21.406C25.7029 21.179 25.7179 20.919 25.7179 20.656C25.7189 20.394 25.7109 20.138 25.7179 19.938C25.7219 19.85 25.7409 19.776 25.7499 19.718C25.7469 19.72 25.7479 19.693 25.7499 19.688C25.7579 19.681 25.7679 19.667 25.7809 19.656C25.8259 19.621 25.8849 19.554 25.9689 19.5C26.1359 19.393 26.3689 19.288 26.5939 19.156C26.8179 19.024 27.0309 18.877 27.2189 18.75C27.3129 18.686 27.3929 18.63 27.4689 18.562C27.5439 18.495 27.6289 18.442 27.6869 18.282C27.7449 18.121 27.7029 18.037 27.6869 17.937C27.6719 17.837 27.6569 17.734 27.6249 17.625C27.5619 17.405 27.4629 17.153 27.3749 16.906C27.2869 16.66 27.2169 16.41 27.1559 16.219C27.1321 16.147 27.1114 16.0739 27.0939 16C27.0929 15.994 27.0639 16.005 27.0619 16C27.0569 16.01 27.0559 16.003 27.0619 15.969C27.0679 15.957 27.0849 15.952 27.0939 15.938C27.1239 15.889 27.1889 15.829 27.2499 15.75C27.3709 15.591 27.5199 15.39 27.6879 15.187C27.8539 14.986 28.0229 14.778 28.1559 14.594C28.2229 14.502 28.2959 14.401 28.3439 14.313C28.3919 14.224 28.4369 14.17 28.4369 14C28.4401 13.8788 28.4078 13.7592 28.3439 13.656C28.2867 13.5588 28.224 13.465 28.1559 13.375C28.006 13.1723 27.85 12.9742 27.6879 12.781C27.5209 12.58 27.3709 12.409 27.2499 12.25C27.195 12.1791 27.143 12.1061 27.0939 12.031C27.0789 12.007 27.0969 12.008 27.0939 12C27.1059 11.944 27.1259 11.845 27.1559 11.75C27.2159 11.56 27.2859 11.31 27.3749 11.062C27.4629 10.816 27.5619 10.562 27.6249 10.344C27.6559 10.234 27.6719 10.131 27.6879 10.031C27.7029 9.93203 27.7449 9.84803 27.6879 9.68703C27.6299 9.52703 27.5439 9.47303 27.4679 9.40703C27.3888 9.33892 27.3053 9.27611 27.2179 9.21903C27.0309 9.09103 26.8179 8.97603 26.5939 8.84403C26.3689 8.71203 26.1359 8.57603 25.9689 8.46903C25.8849 8.41503 25.8259 8.34703 25.7809 8.31303C25.7809 8.30903 25.7509 8.31703 25.7499 8.31303C25.7329 8.28203 25.7429 8.27803 25.7499 8.28103C25.7419 8.22403 25.7229 8.13103 25.7189 8.03103C25.7109 7.83103 25.7189 7.57503 25.7189 7.31203C25.7189 7.05003 25.7029 6.79003 25.6869 6.56203C25.6799 6.44903 25.6759 6.34903 25.6569 6.25003C25.6369 6.15103 25.6409 6.03803 25.5309 5.90603C25.4209 5.77403 25.3119 5.75603 25.2189 5.71903C25.1274 5.68076 25.0331 5.64934 24.9369 5.62503C24.7169 5.57003 24.4429 5.51503 24.1869 5.46903C23.9319 5.42303 23.6939 5.38703 23.4999 5.34403C23.4157 5.3268 23.3323 5.30578 23.2499 5.28103C23.2439 5.27103 23.2269 5.26503 23.2189 5.25003C23.1919 5.19903 23.1629 5.12403 23.1249 5.03103C23.0499 4.84603 22.9649 4.62103 22.8749 4.37503C22.7849 4.12803 22.6849 3.86503 22.5939 3.65603C22.5479 3.55203 22.5199 3.46103 22.4689 3.37503C22.412 3.26891 22.325 3.18195 22.2189 3.12503C22.1162 3.06013 21.9964 3.0274 21.8749 3.03103C21.7749 3.03103 21.6749 3.05103 21.5619 3.06203C21.3369 3.08703 21.0689 3.11203 20.8119 3.15603C20.5559 3.20103 20.3219 3.25403 20.1249 3.28103C20.0269 3.29403 19.9309 3.31103 19.8749 3.31203C19.8689 3.31103 19.8609 3.31903 19.8439 3.31203C19.8369 3.30603 19.8519 3.28903 19.8439 3.28203C19.8019 3.24303 19.7239 3.19903 19.6559 3.12503C19.5229 2.97703 19.3559 2.76303 19.1879 2.56203C19.0199 2.36203 18.8749 2.16503 18.7179 2.00003C18.6399 1.91803 18.5469 1.84503 18.4679 1.78103C18.3909 1.71803 18.3259 1.65503 18.1559 1.62503C17.9859 1.59503 17.9079 1.62503 17.8129 1.65603C17.7169 1.68903 17.6329 1.73103 17.5309 1.78103C17.3279 1.88203 17.1009 2.02603 16.8749 2.15603C16.6489 2.28603 16.4249 2.40703 16.2499 2.50003C16.1619 2.54703 16.0829 2.60303 16.0309 2.62503C15.9789 2.64603 15.9279 2.62503 15.9999 2.62503C16.0719 2.62503 16.0199 2.64603 15.9689 2.62503C15.9169 2.60403 15.8379 2.54703 15.7499 2.50003C15.5739 2.40703 15.3499 2.28703 15.1249 2.15603C14.8999 2.02603 14.6719 1.88203 14.4689 1.78103C14.3669 1.73103 14.2829 1.68903 14.1879 1.65603C14.0919 1.62303 14.0139 1.59403 13.8439 1.62503ZM13.9689 2.40603C14.0139 2.42303 14.0859 2.43403 14.1559 2.46903C14.3259 2.55303 14.5259 2.68303 14.7499 2.81303C14.9729 2.94203 15.2069 3.05103 15.4059 3.15603C15.5059 3.20903 15.5989 3.27603 15.6869 3.31203C15.7851 3.35659 15.8922 3.37813 15.9999 3.37503C16.1077 3.37762 16.2146 3.35609 16.3129 3.31203C16.4009 3.27603 16.4939 3.20903 16.5929 3.15603C16.7929 3.05103 17.0269 2.94203 17.2499 2.81203C17.4729 2.68303 17.6729 2.55303 17.8439 2.46903C17.9139 2.43403 17.9859 2.42403 18.0309 2.40603C18.0669 2.43803 18.1049 2.44603 18.1559 2.50003C18.2879 2.63803 18.4589 2.83303 18.6249 3.03103C18.7909 3.23003 18.9739 3.45703 19.1249 3.62503C19.2009 3.70903 19.2729 3.77903 19.3439 3.84403C19.4139 3.90903 19.4559 3.94903 19.5939 4.00003C19.6921 4.04344 19.7986 4.06494 19.9059 4.06303C20.0019 4.06303 20.1069 4.04603 20.2189 4.03103C20.4409 4.00103 20.6839 3.95103 20.9369 3.90603C21.1909 3.86203 21.4369 3.80203 21.6249 3.78103C21.6949 3.77103 21.7649 3.78103 21.8129 3.78103C21.8369 3.82403 21.8729 3.89103 21.9059 3.96903C21.9829 4.14403 22.0679 4.38103 22.1559 4.62503C22.2449 4.86903 22.3519 5.10303 22.4379 5.31303C22.4799 5.41703 22.5179 5.50803 22.5629 5.59303C22.6069 5.67903 22.6379 5.74903 22.7499 5.84303C22.8619 5.93903 22.9399 5.97103 23.0309 6.00003C23.1229 6.03003 23.2339 6.03803 23.3439 6.06303C23.5639 6.11103 23.8089 6.17303 24.0619 6.21903C24.3159 6.26503 24.5659 6.29803 24.7499 6.34403C24.8299 6.36403 24.8919 6.39003 24.9379 6.40603C24.9459 6.45603 24.9629 6.51103 24.9679 6.59403C24.9819 6.78503 24.9679 7.05203 24.9679 7.31203C24.9689 7.57203 24.9599 7.83603 24.9679 8.06203C24.9729 8.17603 24.9879 8.28003 24.9999 8.37503C25.0129 8.47003 25.0209 8.56103 25.0939 8.68803C25.1659 8.81403 25.2369 8.84703 25.3119 8.90603C25.3879 8.96603 25.4679 9.03303 25.5619 9.09403C25.7519 9.21503 25.9959 9.33803 26.2189 9.46903C26.4409 9.59903 26.6549 9.73703 26.8119 9.84403C26.8919 9.89703 26.9319 9.93703 26.9689 9.96903C26.9589 10.017 26.9289 10.076 26.9059 10.156C26.8529 10.341 26.7749 10.568 26.6879 10.812C26.5999 11.057 26.5059 11.315 26.4379 11.532C26.4029 11.639 26.3949 11.749 26.3749 11.844C26.3549 11.938 26.3189 12.013 26.3439 12.156C26.3689 12.3 26.4179 12.356 26.4689 12.437C26.5189 12.52 26.5879 12.597 26.6559 12.687C26.7939 12.867 26.9599 13.082 27.1249 13.281C27.2899 13.481 27.4499 13.657 27.5629 13.812C27.6189 13.891 27.6639 13.958 27.6879 14C27.6629 14.042 27.6119 14.088 27.5629 14.156C27.4499 14.311 27.2899 14.519 27.1249 14.719C26.9599 14.919 26.7939 15.102 26.6559 15.281C26.5879 15.371 26.5199 15.45 26.4689 15.531C26.4056 15.6254 26.363 15.732 26.3439 15.844C26.3189 15.987 26.3539 16.062 26.3749 16.156C26.3949 16.25 26.4029 16.33 26.4379 16.438C26.5059 16.653 26.5999 16.912 26.6879 17.156C26.7749 17.401 26.8529 17.628 26.9059 17.813C26.9289 17.893 26.9599 17.952 26.9689 18C26.9329 18.032 26.8909 18.072 26.8119 18.125C26.6549 18.232 26.4419 18.369 26.2189 18.5C25.9959 18.63 25.7519 18.754 25.5619 18.875C25.4679 18.936 25.3879 19.003 25.3119 19.063C25.2369 19.122 25.1659 19.155 25.0939 19.281C25.0209 19.408 25.0129 19.498 24.9999 19.594C24.9869 19.689 24.9729 19.793 24.9689 19.906C24.9589 20.133 24.9689 20.396 24.9689 20.656C24.9689 20.916 24.9819 21.183 24.9689 21.375C24.9629 21.457 24.9449 21.514 24.9369 21.563C24.8919 21.579 24.8299 21.606 24.7499 21.625C24.5659 21.671 24.3159 21.704 24.0619 21.75C23.8089 21.796 23.5629 21.858 23.3439 21.906C23.2339 21.93 23.1229 21.939 23.0309 21.969C22.9267 21.9992 22.8306 22.0525 22.7499 22.125C22.6379 22.22 22.6069 22.29 22.5619 22.375C22.5158 22.4667 22.4741 22.5604 22.4369 22.656C22.3519 22.866 22.2449 23.1 22.1569 23.344C22.0669 23.588 21.9829 23.856 21.9069 24.031C21.8729 24.107 21.8369 24.145 21.8119 24.188C21.7659 24.188 21.6959 24.198 21.6249 24.188C21.4369 24.168 21.1909 24.107 20.9369 24.063C20.6839 24.019 20.4409 24 20.2189 23.969C20.1152 23.9532 20.0107 23.9425 19.9059 23.937C19.8099 23.937 19.7319 23.917 19.5939 23.969C19.4439 24.024 19.3889 24.084 19.3119 24.156C19.2359 24.228 19.1459 24.312 19.0619 24.406C18.8949 24.595 18.7099 24.819 18.5319 25.031C18.3819 25.21 18.2389 25.383 18.1249 25.5C18.0889 25.536 18.0889 25.57 18.0619 25.594H18.0319C17.9859 25.577 17.9179 25.568 17.8439 25.531C17.6739 25.447 17.4739 25.317 17.2499 25.188C17.0269 25.058 16.7929 24.918 16.5939 24.813C16.4939 24.76 16.4009 24.725 16.3119 24.688C16.2239 24.651 16.1469 24.594 15.9999 24.594C15.8529 24.594 15.7759 24.65 15.6869 24.687C15.5989 24.724 15.5059 24.759 15.4069 24.812C15.2069 24.918 14.9729 25.058 14.7499 25.187C14.5269 25.317 14.3259 25.447 14.1559 25.531C14.0819 25.568 14.0139 25.577 13.9689 25.594C13.9257 25.554 13.884 25.5123 13.8439 25.469C13.6823 25.2964 13.5259 25.119 13.3749 24.937C13.2089 24.739 13.0259 24.511 12.8749 24.344C12.8056 24.2675 12.7325 24.1944 12.6559 24.125C12.5859 24.06 12.5439 24.019 12.4059 23.969C12.2679 23.918 12.1899 23.933 12.0939 23.937C11.9979 23.937 11.8929 23.954 11.7809 23.969C11.5589 23.999 11.3159 24.017 11.0619 24.062C10.8089 24.106 10.5629 24.167 10.3749 24.187C10.3049 24.197 10.2349 24.187 10.1869 24.187C10.1639 24.144 10.1269 24.107 10.0939 24.031C10.0169 23.856 9.93193 23.588 9.84393 23.344C9.75493 23.1 9.64793 22.866 9.56293 22.656C9.52534 22.5604 9.48329 22.4667 9.43693 22.375C9.39293 22.29 9.36193 22.22 9.24993 22.125C9.16905 22.0527 9.07305 21.9994 8.96893 21.969C8.87693 21.939 8.76593 21.931 8.65593 21.906C8.43593 21.858 8.19093 21.796 7.93693 21.75C7.68393 21.704 7.43393 21.671 7.24993 21.625C7.16993 21.605 7.10793 21.578 7.06193 21.562C7.05493 21.513 7.03693 21.457 7.03193 21.375C7.01793 21.183 7.03193 20.916 7.03193 20.656C7.03093 20.396 7.03993 20.133 7.03193 19.906C7.02626 19.8016 7.01558 19.6975 6.99993 19.594C6.98693 19.498 6.97893 19.408 6.90593 19.281C6.83393 19.155 6.76293 19.121 6.68793 19.063C6.61193 19.003 6.53193 18.936 6.43793 18.875C6.24793 18.754 6.00393 18.631 5.78093 18.5C5.55893 18.37 5.34493 18.232 5.18793 18.125C5.10793 18.072 5.06793 18.032 5.03093 18C5.04093 17.952 5.07093 17.892 5.09393 17.812C5.14693 17.628 5.22493 17.401 5.31193 17.156C5.39993 16.912 5.49393 16.653 5.56193 16.438C5.59693 16.33 5.60493 16.251 5.62493 16.156C5.64493 16.062 5.68093 15.987 5.65593 15.844C5.63684 15.732 5.59424 15.6254 5.53093 15.531C5.48093 15.449 5.41193 15.371 5.34393 15.281C5.20693 15.101 5.03993 14.918 4.87493 14.719C4.70993 14.519 4.54893 14.311 4.43693 14.156C4.39184 14.096 4.35011 14.0336 4.31193 13.969C4.33693 13.926 4.38793 13.881 4.43693 13.813C4.54893 13.657 4.70993 13.481 4.87493 13.281C5.03993 13.081 5.20693 12.867 5.34393 12.687C5.41193 12.597 5.47993 12.519 5.53093 12.437C5.58193 12.356 5.63093 12.3 5.65593 12.157C5.68093 12.013 5.64593 11.938 5.62493 11.844C5.60493 11.75 5.59693 11.639 5.56193 11.531C5.49393 11.315 5.39993 11.057 5.31193 10.812C5.23269 10.5956 5.15999 10.3768 5.09393 10.156C5.07093 10.076 5.03993 10.017 5.03093 9.96903C5.06693 9.93703 5.10893 9.89703 5.18793 9.84403C5.34493 9.73703 5.55793 9.59903 5.78093 9.46903C6.00393 9.33903 6.24793 9.21503 6.43793 9.09403C6.53193 9.03303 6.61193 8.96603 6.68793 8.90603C6.76293 8.84703 6.83393 8.81403 6.90593 8.68703C6.97893 8.56103 6.98693 8.47103 6.99993 8.37503C7.01293 8.28003 7.02693 8.17503 7.03093 8.06203C7.04093 7.83603 7.03093 7.57203 7.03093 7.31203C7.03093 7.05203 7.01793 6.78503 7.03093 6.59403C7.03693 6.51103 7.05493 6.45403 7.06293 6.40603C7.10793 6.39003 7.16993 6.36303 7.24993 6.34403C7.43393 6.29803 7.68393 6.26403 7.93793 6.21903C8.19093 6.17303 8.43693 6.11103 8.65593 6.06203C8.76593 6.03803 8.87693 6.02903 8.96893 6.00003C9.07299 5.96949 9.16897 5.9162 9.24993 5.84403C9.36193 5.74903 9.39293 5.67903 9.43793 5.59403C9.48193 5.50803 9.51993 5.41703 9.56193 5.31203C9.64793 5.10203 9.75493 4.86903 9.84393 4.62503C9.93193 4.38103 10.0169 4.14503 10.0939 3.96903C10.1279 3.89203 10.1639 3.82403 10.1879 3.78103C10.2339 3.78103 10.3039 3.77103 10.3749 3.78103C10.5629 3.80203 10.8089 3.86203 11.0629 3.90603C11.3159 3.95003 11.5589 4.00103 11.7809 4.03103C11.8929 4.04603 11.9979 4.06003 12.0939 4.06303C12.201 4.06245 12.307 4.04106 12.4059 4.00003C12.5439 3.94903 12.5859 3.90903 12.6559 3.84403C12.7269 3.77903 12.7989 3.70903 12.8749 3.62503C13.0259 3.45703 13.2089 3.23003 13.3749 3.03103C13.5409 2.83303 13.7119 2.63803 13.8439 2.50003C13.8949 2.44603 13.9339 2.43803 13.9689 2.40603ZM15.9379 5.00003C13.5749 5.00003 11.2329 5.95403 9.56193 7.62503C7.89193 9.29503 6.93793 11.637 6.93793 14C6.93793 16.362 7.89193 18.673 9.56293 20.344C11.2329 22.014 13.5749 23 15.9369 23C18.2999 23 20.6419 22.014 22.3129 20.344C23.9892 18.6576 24.9325 16.3779 24.9379 14C24.9379 11.638 23.9829 9.29603 22.3129 7.62503C20.6419 5.95503 18.2999 5.00003 15.9379 5.00003ZM15.9379 6.00003C18.0259 6.00003 20.1179 6.86703 21.5939 8.34403C23.0831 9.85134 23.924 11.8812 23.9369 14C23.9369 16.088 23.0699 18.18 21.5939 19.656C20.0865 21.1459 18.0563 21.9871 15.9369 22C13.8179 21.9868 11.7881 21.1456 10.2809 19.656C8.79135 18.1489 7.95012 16.119 7.93693 14C7.93693 11.912 8.80493 9.82003 10.2809 8.34403C11.7881 6.85445 13.8189 6.01322 15.9379 6.00003ZM15.9059 9.21903C15.6059 9.21903 15.4759 9.36003 15.3749 9.46903C15.2749 9.57703 15.2029 9.71503 15.1249 9.84403C14.9689 10.102 14.8349 10.404 14.6869 10.719C14.5389 11.034 14.3699 11.353 14.2499 11.594C14.1899 11.714 14.1649 11.81 14.1249 11.875C14.1049 11.908 14.0729 11.929 14.0619 11.938C13.9879 11.956 13.8519 11.948 13.7189 11.968C13.4519 12.012 13.1269 12.078 12.7809 12.125C12.4349 12.172 12.1059 12.209 11.8119 12.281C11.6615 12.3187 11.5152 12.3709 11.3749 12.437C11.2419 12.501 11.0599 12.557 10.9689 12.844C10.8779 13.13 10.9899 13.309 11.0629 13.438C11.1349 13.566 11.2129 13.668 11.3129 13.781C11.5109 14.009 11.7759 14.231 12.0309 14.469C12.2859 14.707 12.5259 14.968 12.7189 15.156C12.8149 15.25 12.9189 15.316 12.9689 15.375C12.9689 15.387 12.9709 15.4 12.9689 15.438C12.9639 15.514 12.9589 15.617 12.9379 15.75C12.8959 16.016 12.8119 16.376 12.7499 16.719C12.6915 17.05 12.6497 17.3838 12.6249 17.719C12.6139 17.869 12.6059 18.009 12.6249 18.156C12.6439 18.302 12.6619 18.481 12.9059 18.656C13.1509 18.831 13.3559 18.779 13.4999 18.75C13.6449 18.721 13.7669 18.683 13.9059 18.625C14.1849 18.507 14.4759 18.356 14.7809 18.187C15.0869 18.019 15.3859 17.812 15.6249 17.687C15.7449 17.625 15.8659 17.592 15.9379 17.562C15.9539 17.568 15.9779 17.554 15.9999 17.562C16.0709 17.592 16.1919 17.658 16.3129 17.719C16.5529 17.841 16.8479 17.992 17.1559 18.156C17.4639 18.321 17.7519 18.479 18.0309 18.594C18.1709 18.651 18.2919 18.692 18.4379 18.719C18.5829 18.746 18.7889 18.802 19.0309 18.625C19.2729 18.447 19.2949 18.24 19.3129 18.094C19.328 17.9484 19.328 17.8016 19.3129 17.656C19.2859 17.356 19.2229 17.03 19.1559 16.688C19.0899 16.345 19.0139 15.984 18.9689 15.718C18.9459 15.586 18.9439 15.483 18.9369 15.406V15.375C18.9459 15.363 18.9569 15.358 18.9689 15.344C19.0189 15.284 19.0919 15.221 19.1869 15.125C19.3769 14.935 19.6229 14.679 19.8749 14.437C20.1269 14.197 20.3669 13.949 20.5629 13.719C20.6599 13.604 20.7419 13.504 20.8129 13.375C20.8829 13.245 21.0009 13.066 20.9059 12.781C20.8119 12.496 20.6029 12.436 20.4689 12.375C20.3349 12.313 20.2089 12.253 20.0619 12.219C19.7313 12.1509 19.3976 12.0989 19.0619 12.063C18.7159 12.019 18.3919 12.008 18.1249 11.969C18.0197 11.9528 17.9152 11.9318 17.8119 11.906C17.8039 11.898 17.7609 11.92 17.7499 11.906C17.7299 11.891 17.7559 11.879 17.7499 11.875C17.7099 11.81 17.6549 11.682 17.5939 11.562C17.4709 11.322 17.3399 11.032 17.1869 10.719C17.0349 10.405 16.8469 10.069 16.6869 9.81303C16.6079 9.68403 16.5699 9.57603 16.4689 9.46903C16.3996 9.38808 16.3131 9.32364 16.2157 9.28039C16.1183 9.23714 16.0125 9.21617 15.9059 9.21903ZM15.9059 10.5C16.0129 10.686 16.1579 10.903 16.2809 11.156C16.4289 11.461 16.5509 11.764 16.6879 12.031C16.7559 12.165 16.8379 12.299 16.9059 12.406C16.9739 12.514 17.0239 12.602 17.1879 12.719C17.3509 12.836 17.4379 12.846 17.5629 12.875C17.6869 12.905 17.8509 12.915 17.9999 12.938C18.2969 12.981 18.6319 13.02 18.9689 13.062C19.2549 13.099 19.5059 13.114 19.7189 13.156C19.5729 13.317 19.3959 13.519 19.1869 13.719C18.9429 13.953 18.6809 14.194 18.4689 14.406C18.3629 14.513 18.2689 14.59 18.1869 14.687C18.1059 14.786 18.0299 14.871 17.9689 15.063C17.9079 15.253 17.9269 15.342 17.9369 15.469C17.9469 15.596 17.9749 15.759 17.9999 15.906C18.0499 16.202 18.1229 16.543 18.1879 16.875C18.2419 17.158 18.2879 17.41 18.3129 17.625C18.1129 17.537 17.8829 17.419 17.6249 17.281C17.3259 17.121 17.0179 16.948 16.7499 16.813C16.6159 16.745 16.4929 16.673 16.3749 16.625C16.2377 16.5616 16.0881 16.5295 15.9369 16.531C15.7369 16.531 15.6799 16.576 15.5629 16.625C15.4449 16.674 15.3209 16.743 15.1869 16.813C14.9209 16.952 14.6089 17.149 14.3129 17.313C14.0659 17.448 13.8509 17.535 13.6559 17.625C13.6789 17.41 13.6989 17.158 13.7499 16.875C13.8099 16.542 13.8909 16.203 13.9379 15.906C13.9609 15.758 13.9599 15.626 13.9679 15.5C13.9779 15.373 14.0009 15.284 13.9379 15.094C13.8937 14.9541 13.8185 14.8259 13.7179 14.719C13.6359 14.622 13.5449 14.543 13.4379 14.438C13.2229 14.228 12.9659 14.012 12.7179 13.781C12.5109 13.587 12.3339 13.377 12.1879 13.219C12.3979 13.175 12.6579 13.132 12.9379 13.094C13.2729 13.048 13.6089 13.016 13.9059 12.969C14.0549 12.945 14.1889 12.906 14.3119 12.875C14.4359 12.844 14.5259 12.838 14.6879 12.719C14.8489 12.599 14.8709 12.515 14.9379 12.406C15.0039 12.298 15.0889 12.166 15.1559 12.031C15.2899 11.762 15.4189 11.463 15.5619 11.156C15.6829 10.899 15.8019 10.688 15.9059 10.5ZM9.56193 24.656C9.61311 24.7483 9.68939 24.8243 9.78193 24.875C9.92993 24.962 10.0249 24.935 10.1249 24.938C10.2249 24.938 10.3249 24.918 10.4379 24.906C10.6629 24.882 10.9309 24.858 11.1879 24.813C11.4439 24.768 11.6779 24.715 11.8749 24.688C11.9729 24.675 12.0689 24.658 12.1249 24.656C12.1279 24.662 12.1349 24.667 12.1559 24.688C12.1979 24.726 12.2759 24.769 12.3439 24.844C12.4369 24.947 12.5409 25.109 12.6559 25.25L11.0619 28.156L10.6559 26.625C10.6153 26.4988 10.5279 26.3929 10.4117 26.3289C10.2955 26.265 10.1593 26.2479 10.0309 26.281L8.43693 26.688L9.56193 24.656ZM19.8439 24.656C19.7769 24.681 19.8189 24.656 19.8749 24.656C19.9309 24.656 20.0269 24.675 20.1249 24.688C20.3209 24.715 20.5559 24.768 20.8129 24.813C21.0689 24.858 21.3369 24.881 21.5629 24.906C21.6749 24.918 21.7749 24.94 21.8749 24.938C21.9749 24.938 22.0699 24.961 22.2189 24.875C22.2679 24.846 22.2809 24.813 22.3119 24.781L23.4059 26.688L21.8439 26.281C21.7155 26.2479 21.5793 26.265 21.4631 26.3289C21.347 26.3929 21.2596 26.4988 21.2189 26.625L20.8119 28.188L19.2499 25.375C19.3859 25.212 19.5079 25.038 19.6249 24.906C19.7009 24.821 19.7639 24.733 19.8129 24.688C19.8609 24.642 19.9179 24.629 19.8439 24.656Z" fill="url(#paint0_linear_25_183)"/>
<defs>
<linearGradient id="paint0_linear_25_183" x1="3.56293" y1="15.787" x2="22.9999" y2="15.787" gradientUnits="userSpaceOnUse">
<stop stop-color="white"/>
<stop offset="1" stop-color="#FF00F3"/>
</linearGradient>
</defs>
</svg>
