<svg width="64" height="64" viewBox="0 0 64 64" fill="none" xmlns="http://www.w3.org/2000/svg">
<path d="M5.72998 37C1.64998 37 3.21998 42.05 3.64998 43C6.87998 50.08 15.02 51 23.65 51C35.25 51 44.65 42.05 44.65 31C44.65 19.95 35.26 11 23.66 11C20.66 11 15.27 12.44 11.66 15C8.80998 17.02 8.27998 22.23 10.66 24.79C11.79 26.01 12.66 27.46 12.66 29C12.66 33.41 9.56998 37 5.75998 37H5.73998H5.72998Z" fill="url(#paint0_linear_7_45)"/>
<path d="M61.26 59.16C61.02 59.51 60.58 59.68 60.06 59.68C59.54 59.67 58.94 59.5 58.37 59.14L34 44.25C34.63 44.05 35.11 43.71 35.4 43.23L36.13 42.04C36.47 41.49 36.56 40.8 36.41 40L60.07 56.59C61.2 57.3 61.73 58.45 61.26 59.16Z" fill="url(#paint1_linear_7_45)"/>
<path d="M17.6599 23C19.3168 23 20.6599 21.6569 20.6599 20C20.6599 18.3431 19.3168 17 17.6599 17C16.0031 17 14.6599 18.3431 14.6599 20C14.6599 21.6569 16.0031 23 17.6599 23Z" fill="#F46D78"/>
<path d="M28.6599 24C30.3168 24 31.6599 22.6569 31.6599 21C31.6599 19.3431 30.3168 18 28.6599 18C27.0031 18 25.6599 19.3431 25.6599 21C25.6599 22.6569 27.0031 24 28.6599 24Z" fill="#28AF63"/>
<path d="M14.6599 45C16.3168 45 17.6599 43.6569 17.6599 42C17.6599 40.3431 16.3168 39 14.6599 39C13.0031 39 11.6599 40.3431 11.6599 42C11.6599 43.6569 13.0031 45 14.6599 45Z" fill="#1F6ED4"/>
<path d="M36.6599 31C38.3168 31 39.6599 29.6569 39.6599 28C39.6599 26.3431 38.3168 25 36.6599 25C35.0031 25 33.6599 26.3431 33.6599 28C33.6599 29.6569 35.0031 31 36.6599 31Z" fill="#F05945"/>
<path d="M35.6999 38.38L35.7599 38.52C36.3499 39.86 36.3899 41.03 35.8799 41.86L35.1499 43.05C34.2999 44.45 31.8899 44.66 28.9299 43.6C27.8799 43.23 26.8999 42.58 26.1199 41.77C24.7999 40.38 24.0299 39.11 23.5599 37.85C23.0299 36.44 22.8999 35.03 23.0599 33.72L23.5099 29.99L25.4099 32.25C25.9899 32.94 26.8699 33.37 27.6799 33.38C28.7199 33.38 29.9899 33.72 31.2799 34.33C33.2699 35.27 35.0399 36.89 35.6899 38.37L35.6999 38.38Z" fill="#FF5F5F"/>
<path d="M36.99 47.69L57.59 59.8C58.29 60.24 59.08 60.49 59.81 60.5H59.83C60.7 60.5 61.43 60.15 61.84 59.53C62.15 59.06 62.25 58.48 62.13 57.88C61.94 57 61.3 56.15 60.39 55.58L41.8 42.86C44.23 39.48 45.66 35.4 45.66 31C45.66 19.42 35.79 10 23.66 10C20.38 10 14.78 11.57 11.08 14.18C9.49001 15.3 8.44001 17.27 8.20001 19.56C7.96001 21.84 8.61001 24.04 9.92001 25.46C11.07 26.7 11.66 27.89 11.66 28.99C11.66 32.85 9.01001 35.99 5.76001 35.99H5.74001C3.96001 35.99 3.06001 36.81 2.62001 37.49C1.16001 39.76 2.74001 43.37 2.76001 43.41C6.20001 50.95 14.84 51.99 23.67 51.99C28.68 51.99 33.3 50.38 37 47.68L36.99 47.69ZM59.29 57.25C60.04 57.72 60.23 58.31 60.18 58.42C60.17 58.44 60.06 58.5 59.83 58.5C59.47 58.5 59.05 58.36 58.64 58.1L38.66 46.35C39.33 45.75 39.97 45.11 40.56 44.44L59.29 57.26V57.25ZM35.03 41.34L34.3 42.53C33.73 43.46 31.66 43.52 29.28 42.66C28.38 42.34 27.52 41.78 26.86 41.08C25.73 39.89 24.98 38.76 24.51 37.5C24.07 36.32 23.92 35.09 24.07 33.85L24.25 32.4L24.67 32.9C25.44 33.81 26.6 34.38 27.7 34.38C28.59 34.38 29.72 34.69 30.88 35.24C32.64 36.07 34.25 37.53 34.8 38.78L34.86 38.92C35.31 39.94 35.37 40.8 35.04 41.34H35.03ZM36.01 43.57L36.74 42.38C36.82 42.26 36.89 42.11 36.95 41.96L38.89 43.29C38.26 44 37.56 44.66 36.83 45.27L35.3 44.37C35.58 44.14 35.82 43.88 36.01 43.57ZM4.58001 42.58C4.23001 41.82 3.66001 39.58 4.31001 38.58C4.40001 38.44 4.68001 38 5.75001 38H5.77001C10.13 38 13.67 33.96 13.67 29C13.67 27.38 12.91 25.74 11.4 24.11C10.47 23.11 10.02 21.49 10.2 19.78C10.38 18.08 11.14 16.6 12.24 15.82C15.57 13.46 20.76 12 23.66 12C34.69 12 43.66 20.52 43.66 31C43.66 34.98 42.36 38.68 40.15 41.73L37.16 39.68C37.08 39.21 36.93 38.69 36.68 38.11L36.62 37.97C35.87 36.26 33.95 34.48 31.73 33.43C30.29 32.75 28.9 32.38 27.7 32.38C27.18 32.38 26.57 32.07 26.19 31.61L24.29 29.36C24.03 29.06 23.62 28.93 23.24 29.05C22.86 29.16 22.58 29.49 22.53 29.89L22.08 33.62C21.89 35.19 22.08 36.73 22.64 38.22C23.21 39.74 24.09 41.09 25.41 42.47C26.3 43.4 27.41 44.13 28.61 44.56C29.96 45.04 31.21 45.28 32.31 45.28C32.5 45.28 32.68 45.28 32.86 45.26L35.1 46.59C31.86 48.74 27.92 50.02 23.67 50.02C14.24 50.02 7.38001 48.76 4.58001 42.6V42.58Z" fill="black"/>
<path d="M17.6599 16C15.4499 16 13.6599 17.79 13.6599 20C13.6599 22.21 15.4499 24 17.6599 24C19.8699 24 21.6599 22.21 21.6599 20C21.6599 17.79 19.8699 16 17.6599 16ZM17.6599 22C16.5599 22 15.6599 21.1 15.6599 20C15.6599 18.9 16.5599 18 17.6599 18C18.7599 18 19.6599 18.9 19.6599 20C19.6599 21.1 18.7599 22 17.6599 22ZM28.6599 25C30.8699 25 32.6599 23.21 32.6599 21C32.6599 18.79 30.8699 17 28.6599 17C26.4499 17 24.6599 18.79 24.6599 21C24.6599 23.21 26.4499 25 28.6599 25ZM28.6599 19C29.7599 19 30.6599 19.9 30.6599 21C30.6599 22.1 29.7599 23 28.6599 23C27.5599 23 26.6599 22.1 26.6599 21C26.6599 19.9 27.5599 19 28.6599 19ZM14.6599 38C12.4499 38 10.6599 39.79 10.6599 42C10.6599 44.21 12.4499 46 14.6599 46C16.8699 46 18.6599 44.21 18.6599 42C18.6599 39.79 16.8699 38 14.6599 38ZM14.6599 44C13.5599 44 12.6599 43.1 12.6599 42C12.6599 40.9 13.5599 40 14.6599 40C15.7599 40 16.6599 40.9 16.6599 42C16.6599 43.1 15.7599 44 14.6599 44ZM36.6599 32C38.8699 32 40.6599 30.21 40.6599 28C40.6599 25.79 38.8699 24 36.6599 24C34.4499 24 32.6599 25.79 32.6599 28C32.6599 30.21 34.4499 32 36.6599 32ZM36.6599 26C37.7599 26 38.6599 26.9 38.6599 28C38.6599 29.1 37.7599 30 36.6599 30C35.5599 30 34.6599 29.1 34.6599 28C34.6599 26.9 35.5599 26 36.6599 26Z" fill="black"/>
<defs>
<linearGradient id="paint0_linear_7_45" x1="23.8216" y1="11" x2="23.8216" y2="51" gradientUnits="userSpaceOnUse">
<stop stop-color="#BB00DA"/>
<stop offset="1" stop-color="#1F6ED4"/>
</linearGradient>
<linearGradient id="paint1_linear_7_45" x1="47.7156" y1="40" x2="47.7156" y2="59.68" gradientUnits="userSpaceOnUse">
<stop stop-color="#BB00DA"/>
<stop offset="1" stop-color="#640074"/>
</linearGradient>
</defs>
</svg>
